<svg width="120" height="120" viewBox="0 0 120 120" fill="none" xmlns="http://www.w3.org/2000/svg">
<mask id="mask0_20_57" style="mask-type:alpha" maskUnits="userSpaceOnUse" x="0" y="0" width="120" height="120">
<path d="M78.163 0H41.837C29.79 0 23.767 0 17.283 2.04999C10.203 4.62701 4.627 10.203 2.05 17.283C0 23.767 0 29.791 0 41.837V78.163C0 90.21 0 96.232 2.05 102.717C4.627 109.797 10.203 115.373 17.283 117.949C23.767 120 29.79 120 41.837 120H78.163C90.21 120 96.232 120 102.717 117.949C109.797 115.373 115.373 109.797 117.95 102.717C120 96.232 120 90.21 120 78.163V41.837C120 29.791 120 23.767 117.95 17.283C115.373 10.203 109.797 4.62701 102.717 2.04999C96.232 0 90.21 0 78.163 0Z" fill="#C4C4C4"/>
</mask>
<g mask="url(#mask0_20_57)">
<rect width="120" height="120" fill="#0C0A09"/>
<path d="M43.4302 9H76.5697C87.6791 9 92.5418 9.03533 97.7658 10.6719C103.127 12.6478 107.352 16.873 109.328 22.2342C110.965 27.4573 111 32.3216 111 43.4302V76.5697C111 87.6791 110.965 92.5419 109.328 97.7659C107.352 103.127 103.127 107.352 97.7659 109.327C92.5419 110.965 87.6795 111 76.5697 111H43.4302C32.3203 111 27.4572 110.965 22.2342 109.327C16.8732 107.352 12.6479 103.127 10.6719 97.7658C9.03533 92.5418 9 87.6791 9 76.5697V43.4302C9 32.3216 9.03535 27.4573 10.6719 22.2342C12.6478 16.873 16.873 12.6478 22.2342 10.6719C27.4573 9.03535 32.3207 9 43.4302 9Z" stroke="#FAFAF9" stroke-width="2"/>
<path d="M11 25H110" stroke="#FAFAF9" stroke-opacity="0.2" stroke-dasharray="2 2"/>
<path d="M11 94H110" stroke="#FAFAF9" stroke-opacity="0.2" stroke-dasharray="2 2"/>
<path d="M26 109L26 10" stroke="#FAFAF9" stroke-opacity="0.2" stroke-dasharray="2 2"/>
<path d="M95 109L95 10" stroke="#FAFAF9" stroke-opacity="0.2" stroke-dasharray="2 2"/>
<path fill-rule="evenodd" clip-rule="evenodd" d="M53.7987 34.1146V52.6906C53.7987 55.6066 52.6387 58.4026 50.5787 60.4666L45.7107 65.3306C50.5651 65.1643 55.401 66.0102 59.9107 67.8146L61.9187 68.6186C67.2239 70.741 73.0379 71.249 78.6307 70.0786L69.0187 60.4666C66.957 58.4039 65.7988 55.607 65.7987 52.6906V34.1146C61.8001 33.9653 57.7973 33.9653 53.7987 34.1146ZM71.7987 34.4506L72.5587 34.5106C72.9549 34.5488 73.3547 34.5077 73.7348 34.3899C74.115 34.272 74.4679 34.0797 74.773 33.8241C75.0781 33.5686 75.3293 33.2548 75.5119 32.9012C75.6946 32.5476 75.8051 32.1612 75.8369 31.7645C75.8687 31.3677 75.8213 30.9686 75.6974 30.5904C75.5735 30.2122 75.3756 29.8624 75.1151 29.5614C74.8547 29.2605 74.537 29.0143 74.1805 28.8373C73.824 28.6604 73.4359 28.5561 73.0387 28.5306C64.2262 27.8231 55.3712 27.8231 46.5587 28.5306C45.775 28.6061 45.0524 28.9867 44.5468 29.5903C44.0412 30.1938 43.7931 30.972 43.8561 31.7568C43.9191 32.5416 44.2881 33.2702 44.8835 33.7854C45.4789 34.3006 46.253 34.561 47.0387 34.5106L47.7987 34.4506V52.6906C47.7987 54.0146 47.2707 55.2866 46.3347 56.2226L30.1987 72.3626C24.2147 78.3466 26.9307 88.9626 35.8107 90.2626C43.6427 91.4106 51.6507 92.0026 59.7987 92.0026C67.9467 92.0026 75.9547 91.4106 83.7867 90.2586C92.6667 88.9586 95.3867 78.3426 89.3987 72.3586L73.2627 56.2226C72.3261 55.2857 71.7995 54.0154 71.7987 52.6906V34.4506Z" fill="#10B981"/>
</g>
</svg>
