<svg width="500" height="500" viewBox="0 0 500 500" fill="none" xmlns="http://www.w3.org/2000/svg">
<path fill-rule="evenodd" clip-rule="evenodd" d="M204.261 52.6057V194.193C204.261 216.419 195.419 237.73 179.718 253.462L142.614 290.535C179.614 289.268 216.474 295.716 250.847 309.469L266.152 315.597C306.588 331.774 350.903 335.646 393.532 326.725L320.269 253.462C304.554 237.74 295.726 216.422 295.726 194.193V52.6057C265.248 51.4678 234.739 51.4678 204.261 52.6057ZM341.458 55.1667L347.251 55.624C350.27 55.9151 353.318 55.6023 356.215 54.7041C359.113 53.8058 361.802 52.34 364.128 50.3919C366.453 48.4439 368.368 46.0526 369.76 43.3573C371.152 40.6621 371.994 37.7167 372.237 34.6929C372.48 31.669 372.118 28.6271 371.174 25.7443C370.229 22.8615 368.721 20.1954 366.736 17.9014C364.751 15.6073 362.329 13.7312 359.612 12.3823C356.895 11.0333 353.937 10.2385 350.909 10.0442C283.74 4.65194 216.247 4.65194 149.077 10.0442C143.104 10.6199 137.596 13.5209 133.742 18.1212C129.889 22.7215 127.998 28.6525 128.478 34.6344C128.958 40.6163 131.771 46.1697 136.309 50.0965C140.847 54.0232 146.747 56.0085 152.736 55.624L158.529 55.1667V194.193C158.529 204.284 154.504 213.98 147.37 221.114L24.3807 344.134C-21.2296 389.744 -0.528147 470.66 67.1556 480.568C126.851 489.318 187.889 493.831 249.993 493.831C312.098 493.831 373.135 489.318 432.831 480.538C500.515 470.629 521.247 389.714 475.606 344.103L352.617 221.114C345.477 213.973 341.464 204.29 341.458 194.193V55.1667Z" fill="#10B981"/>
</svg>
